solid OpenSCAD_Model
  facet normal 1 0 0
    outer loop
      vertex 56 26 9.5
      vertex 56 19.5 8
      vertex 56 26 0
    endloop
  endfacet
  facet normal 1 0 0
    outer loop
      vertex 56 26 9.5
      vertex 56 6.5 8
      vertex 56 19.5 8
    endloop
  endfacet
  facet normal 1 -0 0
    outer loop
      vertex 56 0 9.5
      vertex 56 6.5 8
      vertex 56 26 9.5
    endloop
  endfacet
  facet normal 1 0 0
    outer loop
      vertex 56 0 0
      vertex 56 6.5 8
      vertex 56 0 9.5
    endloop
  endfacet
  facet normal 1 0 0
    outer loop
      vertex 56 6.5 8
      vertex 56 0 0
      vertex 56 6.5 0
    endloop
  endfacet
  facet normal 1 0 0
    outer loop
      vertex 56 26 0
      vertex 56 19.5 8
      vertex 56 19.5 0
    endloop
  endfacet
  facet normal -0 0 1
    outer loop
      vertex 1.75 18.75 9.5
      vertex 8.5 7.25 9.5
      vertex 8.5 18.75 9.5
    endloop
  endfacet
  facet normal 0 0 1
    outer loop
      vertex 8.5 7.25 9.5
      vertex 1.75 18.75 9.5
      vertex 1.75 7.25 9.5
    endloop
  endfacet
  facet normal 0 0 1
    outer loop
      vertex 54.25 18.75 9.5
      vertex 47 15 9.5
      vertex 54.25 7.25 9.5
    endloop
  endfacet
  facet normal 0 0 1
    outer loop
      vertex 54.25 18.75 9.5
      vertex 45 15 9.5
      vertex 47 15 9.5
    endloop
  endfacet
  facet normal 0 0 1
    outer loop
      vertex 45 15 9.5
      vertex 18.5 18.75 9.5
      vertex 45 11 9.5
    endloop
  endfacet
  facet normal -0 0 1
    outer loop
      vertex 18.5 18.75 9.5
      vertex 45 15 9.5
      vertex 54.25 18.75 9.5
    endloop
  endfacet
  facet normal 0 0 1
    outer loop
      vertex 54.25 18.75 9.5
      vertex 56 26 9.5
      vertex 54.25 22.5 9.5
    endloop
  endfacet
  facet normal 0 0 1
    outer loop
      vertex 56 26 9.5
      vertex 1.75 22.5 9.5
      vertex 54.25 22.5 9.5
    endloop
  endfacet
  facet normal 0 0 1
    outer loop
      vertex 0 26 9.5
      vertex 1.75 18.75 9.5
      vertex 1.75 22.5 9.5
    endloop
  endfacet
  facet normal 0 0 1
    outer loop
      vertex 1.75 18.75 9.5
      vertex 0 26 9.5
      vertex 1.75 7.25 9.5
    endloop
  endfacet
  facet normal 0 0 1
    outer loop
      vertex 0 0 9.5
      vertex 1.75 7.25 9.5
      vertex 0 26 9.5
    endloop
  endfacet
  facet normal -0 0 1
    outer loop
      vertex 0 26 9.5
      vertex 1.75 22.5 9.5
      vertex 56 26 9.5
    endloop
  endfacet
  facet normal 0 0 1
    outer loop
      vertex 56 26 9.5
      vertex 54.25 18.75 9.5
      vertex 56 0 9.5
    endloop
  endfacet
  facet normal -0 0 1
    outer loop
      vertex 54.25 7.25 9.5
      vertex 56 0 9.5
      vertex 54.25 18.75 9.5
    endloop
  endfacet
  facet normal -0 0 1
    outer loop
      vertex 54.25 3.5 9.5
      vertex 56 0 9.5
      vertex 54.25 7.25 9.5
    endloop
  endfacet
  facet normal -0 0 1
    outer loop
      vertex 1.75 3.5 9.5
      vertex 56 0 9.5
      vertex 54.25 3.5 9.5
    endloop
  endfacet
  facet normal 0 0 1
    outer loop
      vertex 1.75 3.5 9.5
      vertex 0 0 9.5
      vertex 56 0 9.5
    endloop
  endfacet
  facet normal 0 0 1
    outer loop
      vertex 1.75 7.25 9.5
      vertex 0 0 9.5
      vertex 1.75 3.5 9.5
    endloop
  endfacet
  facet normal -0 0 1
    outer loop
      vertex 47 11 9.5
      vertex 54.25 7.25 9.5
      vertex 47 15 9.5
    endloop
  endfacet
  facet normal -0 0 1
    outer loop
      vertex 45 11 9.5
      vertex 54.25 7.25 9.5
      vertex 47 11 9.5
    endloop
  endfacet
  facet normal 0 0 1
    outer loop
      vertex 18.5 7.25 9.5
      vertex 45 11 9.5
      vertex 18.5 18.75 9.5
    endloop
  endfacet
  facet normal 0 0 1
    outer loop
      vertex 45 11 9.5
      vertex 18.5 7.25 9.5
      vertex 54.25 7.25 9.5
    endloop
  endfacet
  facet normal 0 0 -1
    outer loop
      vertex 1 17.5 0
      vertex 0 17.5 0
      vertex 1 25 0
    endloop
  endfacet
  facet normal 0 0 -1
    outer loop
      vertex 55 25 0
      vertex 56 19.5 0
      vertex 55 19.5 0
    endloop
  endfacet
  facet normal 0 0 -1
    outer loop
      vertex 56 19.5 0
      vertex 55 25 0
      vertex 56 26 0
    endloop
  endfacet
  facet normal 0 0 -1
    outer loop
      vertex 1 25 0
      vertex 56 26 0
      vertex 55 25 0
    endloop
  endfacet
  facet normal 0 0 -1
    outer loop
      vertex 1 25 0
      vertex 0 26 0
      vertex 56 26 0
    endloop
  endfacet
  facet normal 0 0 -1
    outer loop
      vertex 0 26 0
      vertex 1 25 0
      vertex 0 17.5 0
    endloop
  endfacet
  facet normal 0 0 -1
    outer loop
      vertex 56 0 0
      vertex 55 1 0
      vertex 56 6.5 0
    endloop
  endfacet
  facet normal 0 0 -1
    outer loop
      vertex 56 0 0
      vertex 1 1 0
      vertex 55 1 0
    endloop
  endfacet
  facet normal 0 0 -1
    outer loop
      vertex 0 0 0
      vertex 1 1 0
      vertex 56 0 0
    endloop
  endfacet
  facet normal 0 0 -1
    outer loop
      vertex 0 8.5 0
      vertex 1 1 0
      vertex 0 0 0
    endloop
  endfacet
  facet normal 0 0 -1
    outer loop
      vertex 1 1 0
      vertex 0 8.5 0
      vertex 1 8.5 0
    endloop
  endfacet
  facet normal -0 0 -1
    outer loop
      vertex 56 6.5 0
      vertex 55 1 0
      vertex 55 6.5 0
    endloop
  endfacet
  facet normal -1 0 0
    outer loop
      vertex 0 8.5 0
      vertex 0 0 0
      vertex 0 8.5 7
    endloop
  endfacet
  facet normal -1 0 0
    outer loop
      vertex 0 17.5 7
      vertex 0 26 0
      vertex 0 17.5 0
    endloop
  endfacet
  facet normal -1 0 0
    outer loop
      vertex 0 26 0
      vertex 0 17.5 7
      vertex 0 26 9.5
    endloop
  endfacet
  facet normal -1 0 0
    outer loop
      vertex 0 8.5 7
      vertex 0 26 9.5
      vertex 0 17.5 7
    endloop
  endfacet
  facet normal -1 0 0
    outer loop
      vertex 0 8.5 7
      vertex 0 0 9.5
      vertex 0 26 9.5
    endloop
  endfacet
  facet normal -1 0 0
    outer loop
      vertex 0 0 9.5
      vertex 0 8.5 7
      vertex 0 0 0
    endloop
  endfacet
  facet normal 0 1 -0
    outer loop
      vertex 56 26 0
      vertex 0 26 9.5
      vertex 56 26 9.5
    endloop
  endfacet
  facet normal 0 1 0
    outer loop
      vertex 0 26 9.5
      vertex 56 26 0
      vertex 0 26 0
    endloop
  endfacet
  facet normal 0 -1 0
    outer loop
      vertex 0 0 0
      vertex 56 0 9.5
      vertex 0 0 9.5
    endloop
  endfacet
  facet normal 0 -1 -0
    outer loop
      vertex 56 0 9.5
      vertex 0 0 0
      vertex 56 0 0
    endloop
  endfacet
  facet normal -1 0 0
    outer loop
      vertex 55 19.5 0
      vertex 55 25 4.001
      vertex 55 25 0
    endloop
  endfacet
  facet normal -1 -0 0
    outer loop
      vertex 55 25 4.001
      vertex 55 19.5 0
      vertex 55 19.5 4.001
    endloop
  endfacet
  facet normal -1 0 0
    outer loop
      vertex 55 1 0
      vertex 55 6.5 4.001
      vertex 55 6.5 0
    endloop
  endfacet
  facet normal -1 -0 0
    outer loop
      vertex 55 6.5 4.001
      vertex 55 1 0
      vertex 55 1 4.001
    endloop
  endfacet
  facet normal 0 0 -1
    outer loop
      vertex 8.5 17.5 4.001
      vertex 1.75 18.75 4.001
      vertex 8.5 18.75 4.001
    endloop
  endfacet
  facet normal -0 0 -1
    outer loop
      vertex 1.75 18.75 4.001
      vertex 1 17.5 4.001
      vertex 1.75 22.5 4.001
    endloop
  endfacet
  facet normal 0 0 -1
    outer loop
      vertex 1 17.5 4.001
      vertex 1.75 18.75 4.001
      vertex 8.5 17.5 4.001
    endloop
  endfacet
  facet normal 0 0 -1
    outer loop
      vertex 54.25 22.5 4.001
      vertex 55 19.5 4.001
      vertex 54.25 19.5 4.001
    endloop
  endfacet
  facet normal 0 0 -1
    outer loop
      vertex 55 19.5 4.001
      vertex 54.25 22.5 4.001
      vertex 55 25 4.001
    endloop
  endfacet
  facet normal 0 0 -1
    outer loop
      vertex 1.75 22.5 4.001
      vertex 55 25 4.001
      vertex 54.25 22.5 4.001
    endloop
  endfacet
  facet normal 0 0 -1
    outer loop
      vertex 1.75 22.5 4.001
      vertex 1 25 4.001
      vertex 55 25 4.001
    endloop
  endfacet
  facet normal 0 0 -1
    outer loop
      vertex 1 25 4.001
      vertex 1.75 22.5 4.001
      vertex 1 17.5 4.001
    endloop
  endfacet
  facet normal 0 0 -1
    outer loop
      vertex 55 1 4.001
      vertex 54.25 3.5 4.001
      vertex 55 6.5 4.001
    endloop
  endfacet
  facet normal 0 0 -1
    outer loop
      vertex 55 1 4.001
      vertex 1.75 3.5 4.001
      vertex 54.25 3.5 4.001
    endloop
  endfacet
  facet normal 0 0 -1
    outer loop
      vertex 1 8.5 4.001
      vertex 1.75 3.5 4.001
      vertex 1 1 4.001
    endloop
  endfacet
  facet normal 0 0 -1
    outer loop
      vertex 1 1 4.001
      vertex 1.75 3.5 4.001
      vertex 55 1 4.001
    endloop
  endfacet
  facet normal -0 0 -1
    outer loop
      vertex 55 6.5 4.001
      vertex 54.25 3.5 4.001
      vertex 54.25 6.5 4.001
    endloop
  endfacet
  facet normal 0 0 -1
    outer loop
      vertex 1.75 7.25 4.001
      vertex 8.5 8.5 4.001
      vertex 8.5 7.25 4.001
    endloop
  endfacet
  facet normal 0 0 -1
    outer loop
      vertex 1.75 7.25 4.001
      vertex 1 8.5 4.001
      vertex 8.5 8.5 4.001
    endloop
  endfacet
  facet normal 0 0 -1
    outer loop
      vertex 1.75 3.5 4.001
      vertex 1 8.5 4.001
      vertex 1.75 7.25 4.001
    endloop
  endfacet
  facet normal 0 0 -1
    outer loop
      vertex 18.5 7.25 4.001
      vertex 23 18.75 4.001
      vertex 23 7.25 4.001
    endloop
  endfacet
  facet normal -0 0 -1
    outer loop
      vertex 23 18.75 4.001
      vertex 18.5 7.25 4.001
      vertex 18.5 18.75 4.001
    endloop
  endfacet
  facet normal 1 -0 0
    outer loop
      vertex 1 17.5 4.001
      vertex 1 25 0
      vertex 1 25 4.001
    endloop
  endfacet
  facet normal 1 0 0
    outer loop
      vertex 1 25 0
      vertex 1 17.5 4.001
      vertex 1 17.5 0
    endloop
  endfacet
  facet normal 1 -0 0
    outer loop
      vertex 1 1 4.001
      vertex 1 8.5 0
      vertex 1 8.5 4.001
    endloop
  endfacet
  facet normal 1 0 0
    outer loop
      vertex 1 8.5 0
      vertex 1 1 4.001
      vertex 1 1 0
    endloop
  endfacet
  facet normal 0 -1 0
    outer loop
      vertex 1 25 0
      vertex 55 25 4.001
      vertex 1 25 4.001
    endloop
  endfacet
  facet normal 0 -1 -0
    outer loop
      vertex 55 25 4.001
      vertex 1 25 0
      vertex 55 25 0
    endloop
  endfacet
  facet normal 0 1 -0
    outer loop
      vertex 55 1 0
      vertex 1 1 4.001
      vertex 55 1 4.001
    endloop
  endfacet
  facet normal 0 1 0
    outer loop
      vertex 1 1 4.001
      vertex 55 1 0
      vertex 1 1 0
    endloop
  endfacet
  facet normal -1 0 0
    outer loop
      vertex 54.25 6.5 4.001
      vertex 54.25 3.5 4.001
      vertex 54.25 6.5 8
    endloop
  endfacet
  facet normal -1 0 0
    outer loop
      vertex 54.25 6.5 8
      vertex 54.25 7.25 9.5
      vertex 54.25 7.25 8
    endloop
  endfacet
  facet normal -1 0 0
    outer loop
      vertex 54.25 3.5 9.5
      vertex 54.25 6.5 8
      vertex 54.25 3.5 4.001
    endloop
  endfacet
  facet normal -1 0 0
    outer loop
      vertex 54.25 6.5 8
      vertex 54.25 3.5 9.5
      vertex 54.25 7.25 9.5
    endloop
  endfacet
  facet normal 1 -0 0
    outer loop
      vertex 1.75 3.5 9.5
      vertex 1.75 7.25 4.001
      vertex 1.75 7.25 9.5
    endloop
  endfacet
  facet normal 1 0 0
    outer loop
      vertex 1.75 7.25 4.001
      vertex 1.75 3.5 9.5
      vertex 1.75 3.5 4.001
    endloop
  endfacet
  facet normal 0 -1 0
    outer loop
      vertex 1.75 7.25 4.001
      vertex 8.5 7.25 9.5
      vertex 1.75 7.25 9.5
    endloop
  endfacet
  facet normal 0 -1 -0
    outer loop
      vertex 8.5 7.25 9.5
      vertex 1.75 7.25 4.001
      vertex 8.5 7.25 4.001
    endloop
  endfacet
  facet normal 0 -1 0
    outer loop
      vertex 18.5 7.25 9.5
      vertex 23 7.25 8
      vertex 54.25 7.25 9.5
    endloop
  endfacet
  facet normal 0 -1 0
    outer loop
      vertex 18.5 7.25 4.001
      vertex 23 7.25 8
      vertex 18.5 7.25 9.5
    endloop
  endfacet
  facet normal 0 -1 -0
    outer loop
      vertex 23 7.25 8
      vertex 18.5 7.25 4.001
      vertex 23 7.25 4.001
    endloop
  endfacet
  facet normal 0 -1 -0
    outer loop
      vertex 54.25 7.25 9.5
      vertex 23 7.25 8
      vertex 54.25 7.25 8
    endloop
  endfacet
  facet normal 0 1 -0
    outer loop
      vertex 54.25 3.5 4.001
      vertex 1.75 3.5 9.5
      vertex 54.25 3.5 9.5
    endloop
  endfacet
  facet normal 0 1 0
    outer loop
      vertex 1.75 3.5 9.5
      vertex 54.25 3.5 4.001
      vertex 1.75 3.5 4.001
    endloop
  endfacet
  facet normal -1 0 0
    outer loop
      vertex 54.25 19.5 8
      vertex 54.25 22.5 4.001
      vertex 54.25 19.5 4.001
    endloop
  endfacet
  facet normal -1 0 0
    outer loop
      vertex 54.25 22.5 4.001
      vertex 54.25 19.5 8
      vertex 54.25 22.5 9.5
    endloop
  endfacet
  facet normal -1 0 0
    outer loop
      vertex 54.25 18.75 9.5
      vertex 54.25 19.5 8
      vertex 54.25 18.75 8
    endloop
  endfacet
  facet normal -1 0 0
    outer loop
      vertex 54.25 19.5 8
      vertex 54.25 18.75 9.5
      vertex 54.25 22.5 9.5
    endloop
  endfacet
  facet normal 1 -0 0
    outer loop
      vertex 1.75 18.75 9.5
      vertex 1.75 22.5 4.001
      vertex 1.75 22.5 9.5
    endloop
  endfacet
  facet normal 1 0 0
    outer loop
      vertex 1.75 22.5 4.001
      vertex 1.75 18.75 9.5
      vertex 1.75 18.75 4.001
    endloop
  endfacet
  facet normal 0 -1 0
    outer loop
      vertex 1.75 22.5 4.001
      vertex 54.25 22.5 9.5
      vertex 1.75 22.5 9.5
    endloop
  endfacet
  facet normal 0 -1 -0
    outer loop
      vertex 54.25 22.5 9.5
      vertex 1.75 22.5 4.001
      vertex 54.25 22.5 4.001
    endloop
  endfacet
  facet normal 0 1 -0
    outer loop
      vertex 8.5 18.75 4.001
      vertex 1.75 18.75 9.5
      vertex 8.5 18.75 9.5
    endloop
  endfacet
  facet normal 0 1 0
    outer loop
      vertex 1.75 18.75 9.5
      vertex 8.5 18.75 4.001
      vertex 1.75 18.75 4.001
    endloop
  endfacet
  facet normal 0 1 0
    outer loop
      vertex 23 18.75 8
      vertex 54.25 18.75 9.5
      vertex 54.25 18.75 8
    endloop
  endfacet
  facet normal 0 1 0
    outer loop
      vertex 54.25 18.75 9.5
      vertex 23 18.75 8
      vertex 18.5 18.75 9.5
    endloop
  endfacet
  facet normal 0 1 0
    outer loop
      vertex 18.5 18.75 4.001
      vertex 23 18.75 8
      vertex 23 18.75 4.001
    endloop
  endfacet
  facet normal 0 1 0
    outer loop
      vertex 23 18.75 8
      vertex 18.5 18.75 4.001
      vertex 18.5 18.75 9.5
    endloop
  endfacet
  facet normal -1 0 0
    outer loop
      vertex 18.5 7.25 4.001
      vertex 18.5 18.75 9.5
      vertex 18.5 18.75 4.001
    endloop
  endfacet
  facet normal -1 -0 0
    outer loop
      vertex 18.5 18.75 9.5
      vertex 18.5 7.25 4.001
      vertex 18.5 7.25 9.5
    endloop
  endfacet
  facet normal 1 0 0
    outer loop
      vertex 8.5 18.75 9.5
      vertex 8.5 17.5 7
      vertex 8.5 18.75 4.001
    endloop
  endfacet
  facet normal 1 0 0
    outer loop
      vertex 8.5 18.75 9.5
      vertex 8.5 8.5 7
      vertex 8.5 17.5 7
    endloop
  endfacet
  facet normal 1 -0 0
    outer loop
      vertex 8.5 7.25 9.5
      vertex 8.5 8.5 7
      vertex 8.5 18.75 9.5
    endloop
  endfacet
  facet normal 1 0 0
    outer loop
      vertex 8.5 7.25 4.001
      vertex 8.5 8.5 7
      vertex 8.5 7.25 9.5
    endloop
  endfacet
  facet normal 1 0 0
    outer loop
      vertex 8.5 8.5 7
      vertex 8.5 7.25 4.001
      vertex 8.5 8.5 4.001
    endloop
  endfacet
  facet normal 1 0 0
    outer loop
      vertex 8.5 18.75 4.001
      vertex 8.5 17.5 7
      vertex 8.5 17.5 4.001
    endloop
  endfacet
  facet normal 0 0 -1
    outer loop
      vertex 0 8.5 7
      vertex 8.5 17.5 7
      vertex 8.5 8.5 7
    endloop
  endfacet
  facet normal -0 0 -1
    outer loop
      vertex 8.5 17.5 7
      vertex 0 8.5 7
      vertex 0 17.5 7
    endloop
  endfacet
  facet normal 0 -1 0
    outer loop
      vertex 0 17.5 7
      vertex 1 17.5 4.001
      vertex 8.5 17.5 7
    endloop
  endfacet
  facet normal 0 -1 0
    outer loop
      vertex 0 17.5 0
      vertex 1 17.5 4.001
      vertex 0 17.5 7
    endloop
  endfacet
  facet normal 0 -1 -0
    outer loop
      vertex 1 17.5 4.001
      vertex 0 17.5 0
      vertex 1 17.5 0
    endloop
  endfacet
  facet normal 0 -1 -0
    outer loop
      vertex 8.5 17.5 7
      vertex 1 17.5 4.001
      vertex 8.5 17.5 4.001
    endloop
  endfacet
  facet normal 0 1 0
    outer loop
      vertex 1 8.5 4.001
      vertex 8.5 8.5 7
      vertex 8.5 8.5 4.001
    endloop
  endfacet
  facet normal 0 1 0
    outer loop
      vertex 8.5 8.5 7
      vertex 1 8.5 4.001
      vertex 0 8.5 7
    endloop
  endfacet
  facet normal 0 1 0
    outer loop
      vertex 0 8.5 0
      vertex 1 8.5 4.001
      vertex 1 8.5 0
    endloop
  endfacet
  facet normal 0 1 0
    outer loop
      vertex 1 8.5 4.001
      vertex 0 8.5 0
      vertex 0 8.5 7
    endloop
  endfacet
  facet normal 0 -1 0
    outer loop
      vertex 55 19.5 4.001
      vertex 54.25 19.5 8
      vertex 54.25 19.5 4.001
    endloop
  endfacet
  facet normal 0 -1 0
    outer loop
      vertex 54.25 19.5 8
      vertex 55 19.5 4.001
      vertex 56 19.5 8
    endloop
  endfacet
  facet normal 0 -1 0
    outer loop
      vertex 56 19.5 0
      vertex 55 19.5 4.001
      vertex 55 19.5 0
    endloop
  endfacet
  facet normal 0 -1 0
    outer loop
      vertex 55 19.5 4.001
      vertex 56 19.5 0
      vertex 56 19.5 8
    endloop
  endfacet
  facet normal 0 1 0
    outer loop
      vertex 56 6.5 8
      vertex 55 6.5 4.001
      vertex 54.25 6.5 8
    endloop
  endfacet
  facet normal 0 1 -0
    outer loop
      vertex 56 6.5 0
      vertex 55 6.5 4.001
      vertex 56 6.5 8
    endloop
  endfacet
  facet normal 0 1 0
    outer loop
      vertex 55 6.5 4.001
      vertex 56 6.5 0
      vertex 55 6.5 0
    endloop
  endfacet
  facet normal 0 1 0
    outer loop
      vertex 54.25 6.5 8
      vertex 55 6.5 4.001
      vertex 54.25 6.5 4.001
    endloop
  endfacet
  facet normal 0 0 -1
    outer loop
      vertex 54.25 7.25 8
      vertex 47 11 8
      vertex 54.25 18.75 8
    endloop
  endfacet
  facet normal 0 0 -1
    outer loop
      vertex 54.25 7.25 8
      vertex 45 11 8
      vertex 47 11 8
    endloop
  endfacet
  facet normal -0 0 -1
    outer loop
      vertex 45 11 8
      vertex 23 7.25 8
      vertex 45 15 8
    endloop
  endfacet
  facet normal 0 0 -1
    outer loop
      vertex 23 7.25 8
      vertex 45 11 8
      vertex 54.25 7.25 8
    endloop
  endfacet
  facet normal 0 0 -1
    outer loop
      vertex 54.25 7.25 8
      vertex 56 6.5 8
      vertex 54.25 6.5 8
    endloop
  endfacet
  facet normal 0 0 -1
    outer loop
      vertex 56 6.5 8
      vertex 54.25 7.25 8
      vertex 56 19.5 8
    endloop
  endfacet
  facet normal 0 0 -1
    outer loop
      vertex 54.25 18.75 8
      vertex 56 19.5 8
      vertex 54.25 7.25 8
    endloop
  endfacet
  facet normal -0 0 -1
    outer loop
      vertex 56 19.5 8
      vertex 54.25 18.75 8
      vertex 54.25 19.5 8
    endloop
  endfacet
  facet normal 0 0 -1
    outer loop
      vertex 47 15 8
      vertex 54.25 18.75 8
      vertex 47 11 8
    endloop
  endfacet
  facet normal 0 0 -1
    outer loop
      vertex 45 15 8
      vertex 54.25 18.75 8
      vertex 47 15 8
    endloop
  endfacet
  facet normal 0 0 -1
    outer loop
      vertex 23 18.75 8
      vertex 45 15 8
      vertex 23 7.25 8
    endloop
  endfacet
  facet normal 0 0 -1
    outer loop
      vertex 45 15 8
      vertex 23 18.75 8
      vertex 54.25 18.75 8
    endloop
  endfacet
  facet normal 1 -0 0
    outer loop
      vertex 23 7.25 8
      vertex 23 18.75 4.001
      vertex 23 18.75 8
    endloop
  endfacet
  facet normal 1 0 0
    outer loop
      vertex 23 18.75 4.001
      vertex 23 7.25 8
      vertex 23 7.25 4.001
    endloop
  endfacet
  facet normal -1 0 0
    outer loop
      vertex 47 11 8
      vertex 47 15 9.5
      vertex 47 15 8
    endloop
  endfacet
  facet normal -1 -0 0
    outer loop
      vertex 47 15 9.5
      vertex 47 11 8
      vertex 47 11 9.5
    endloop
  endfacet
  facet normal 1 -0 0
    outer loop
      vertex 45 11 9.5
      vertex 45 15 8
      vertex 45 15 9.5
    endloop
  endfacet
  facet normal 1 0 0
    outer loop
      vertex 45 15 8
      vertex 45 11 9.5
      vertex 45 11 8
    endloop
  endfacet
  facet normal 0 -1 0
    outer loop
      vertex 45 15 8
      vertex 47 15 9.5
      vertex 45 15 9.5
    endloop
  endfacet
  facet normal 0 -1 -0
    outer loop
      vertex 47 15 9.5
      vertex 45 15 8
      vertex 47 15 8
    endloop
  endfacet
  facet normal 0 1 -0
    outer loop
      vertex 47 11 8
      vertex 45 11 9.5
      vertex 47 11 9.5
    endloop
  endfacet
  facet normal 0 1 0
    outer loop
      vertex 45 11 9.5
      vertex 47 11 8
      vertex 45 11 8
    endloop
  endfacet
endsolid OpenSCAD_Model
